<svg width="192" height="48" viewBox="0 0 192 48" fill="none" xmlns="http://www.w3.org/2000/svg">
<path d="M11.4985 12H59.5011" stroke="#3615A8" stroke-width="5" stroke-linecap="round"/>
<path d="M11.4985 24H59.5011" stroke="#3615A8" stroke-width="5" stroke-linecap="round"/>
<path d="M11.4985 36H59.5011" stroke="#3615A8" stroke-width="5" stroke-linecap="round"/>
<g clip-path="url(#clip0_206_914)">
<rect x="87" y="4" width="102" height="39" rx="19.5" fill="#72D17C"/>
<path d="M112.491 23.9091C112.491 25.0194 112.281 25.964 111.86 26.7429C111.442 27.5218 110.872 28.1167 110.15 28.5277C109.431 28.9354 108.622 29.1392 107.724 29.1392C106.819 29.1392 106.007 28.9337 105.288 28.5227C104.568 28.1117 104 27.5168 103.582 26.7379C103.165 25.959 102.956 25.0161 102.956 23.9091C102.956 22.7988 103.165 21.8542 103.582 21.0753C104 20.2964 104.568 19.7031 105.288 19.2955C106.007 18.8845 106.819 18.679 107.724 18.679C108.622 18.679 109.431 18.8845 110.15 19.2955C110.872 19.7031 111.442 20.2964 111.86 21.0753C112.281 21.8542 112.491 22.7988 112.491 23.9091ZM110.309 23.9091C110.309 23.1899 110.201 22.5833 109.986 22.0895C109.774 21.5956 109.474 21.2211 109.086 20.9659C108.698 20.7107 108.244 20.5831 107.724 20.5831C107.203 20.5831 106.749 20.7107 106.362 20.9659C105.974 21.2211 105.672 21.5956 105.457 22.0895C105.245 22.5833 105.138 23.1899 105.138 23.9091C105.138 24.6283 105.245 25.2348 105.457 25.7287C105.672 26.2225 105.974 26.5971 106.362 26.8523C106.749 27.1075 107.203 27.2351 107.724 27.2351C108.244 27.2351 108.698 27.1075 109.086 26.8523C109.474 26.5971 109.774 26.2225 109.986 25.7287C110.201 25.2348 110.309 24.6283 110.309 23.9091ZM115.744 24.5852V29H113.626V21.3636H115.645V22.7109H115.734C115.903 22.2668 116.187 21.9155 116.584 21.657C116.982 21.3951 117.464 21.2642 118.031 21.2642C118.561 21.2642 119.024 21.3802 119.418 21.6122C119.813 21.8442 120.119 22.1757 120.338 22.6065C120.557 23.0341 120.666 23.5445 120.666 24.1378V29H118.548V24.5156C118.552 24.0483 118.432 23.6837 118.19 23.4219C117.948 23.1567 117.615 23.0241 117.191 23.0241C116.906 23.0241 116.654 23.0855 116.435 23.2081C116.22 23.3307 116.051 23.5097 115.928 23.745C115.809 23.977 115.748 24.2571 115.744 24.5852ZM124.033 18.8182V29H121.915V18.8182H124.033ZM125.31 29V21.3636H127.428V29H125.31ZM126.374 20.3793C126.059 20.3793 125.789 20.2749 125.563 20.0661C125.341 19.8539 125.23 19.6004 125.23 19.3054C125.23 19.0137 125.341 18.7635 125.563 18.5547C125.789 18.3426 126.059 18.2365 126.374 18.2365C126.689 18.2365 126.957 18.3426 127.179 18.5547C127.404 18.7635 127.517 19.0137 127.517 19.3054C127.517 19.6004 127.404 19.8539 127.179 20.0661C126.957 20.2749 126.689 20.3793 126.374 20.3793ZM130.822 24.5852V29H128.704V21.3636H130.723V22.7109H130.812C130.981 22.2668 131.265 21.9155 131.662 21.657C132.06 21.3951 132.542 21.2642 133.109 21.2642C133.639 21.2642 134.102 21.3802 134.496 21.6122C134.891 21.8442 135.197 22.1757 135.416 22.6065C135.635 23.0341 135.744 23.5445 135.744 24.1378V29H133.626V24.5156C133.629 24.0483 133.51 23.6837 133.268 23.4219C133.026 23.1567 132.693 23.0241 132.269 23.0241C131.984 23.0241 131.732 23.0855 131.513 23.2081C131.298 23.3307 131.129 23.5097 131.006 23.745C130.887 23.977 130.825 24.2571 130.822 24.5852ZM140.473 29.1491C139.688 29.1491 139.012 28.9901 138.445 28.6719C137.881 28.3504 137.447 27.8963 137.142 27.3097C136.837 26.7197 136.685 26.022 136.685 25.2166C136.685 24.4311 136.837 23.7417 137.142 23.1484C137.447 22.5552 137.877 22.0928 138.43 21.7614C138.987 21.4299 139.64 21.2642 140.389 21.2642C140.893 21.2642 141.362 21.3454 141.796 21.5078C142.233 21.6669 142.614 21.9072 142.939 22.2287C143.267 22.5502 143.523 22.9545 143.705 23.4418C143.887 23.9257 143.978 24.4924 143.978 25.142V25.7237H137.53V24.4112H141.985C141.985 24.1063 141.918 23.8362 141.786 23.6009C141.653 23.3655 141.469 23.1816 141.234 23.049C141.002 22.9131 140.732 22.8452 140.424 22.8452C140.102 22.8452 139.817 22.9197 139.569 23.0689C139.323 23.2147 139.131 23.4119 138.992 23.6605C138.853 23.9058 138.781 24.1792 138.778 24.4808V25.7287C138.778 26.1065 138.848 26.433 138.987 26.7081C139.129 26.9832 139.33 27.1953 139.588 27.3445C139.847 27.4936 140.153 27.5682 140.508 27.5682C140.743 27.5682 140.959 27.535 141.154 27.4688C141.35 27.4025 141.517 27.303 141.657 27.1705C141.796 27.0379 141.902 26.8755 141.975 26.6832L143.934 26.8125C143.834 27.2831 143.63 27.6941 143.322 28.0455C143.017 28.3935 142.623 28.6652 142.139 28.8608C141.658 29.053 141.103 29.1491 140.473 29.1491Z" fill="white"/>
<g filter="url(#filter0_dd_206_914)">
<circle cx="169.5" cy="23.5" r="16.25" fill="white" fill-opacity="0.8" shape-rendering="crispEdges"/>
</g>
</g>
<rect x="85.5" y="2.5" width="105" height="42" rx="21" stroke="#3615A8" stroke-width="3"/>
<defs>
<filter id="filter0_dd_206_914" x="148.375" y="4" width="42.25" height="42.25" filterUnits="userSpaceOnUse" color-interpolation-filters="sRGB">
<feFlood flood-opacity="0" result="BackgroundImageFix"/>
<feColorMatrix in="SourceAlpha" type="matrix" values="0 0 0 0 0 0 0 0 0 0 0 0 0 0 0 0 0 0 127 0" result="hardAlpha"/>
<feMorphology radius="1.625" operator="erode" in="SourceAlpha" result="effect1_dropShadow_206_914"/>
<feOffset dy="1.625"/>
<feGaussianBlur stdDeviation="1.625"/>
<feComposite in2="hardAlpha" operator="out"/>
<feColorMatrix type="matrix" values="0 0 0 0 0 0 0 0 0 0 0 0 0 0 0 0 0 0 0.08 0"/>
<feBlend mode="normal" in2="BackgroundImageFix" result="effect1_dropShadow_206_914"/>
<feColorMatrix in="SourceAlpha" type="matrix" values="0 0 0 0 0 0 0 0 0 0 0 0 0 0 0 0 0 0 127 0" result="hardAlpha"/>
<feOffset dy="1.625"/>
<feGaussianBlur stdDeviation="2.4375"/>
<feComposite in2="hardAlpha" operator="out"/>
<feColorMatrix type="matrix" values="0 0 0 0 0 0 0 0 0 0 0 0 0 0 0 0 0 0 0.08 0"/>
<feBlend mode="normal" in2="effect1_dropShadow_206_914" result="effect2_dropShadow_206_914"/>
<feBlend mode="normal" in="SourceGraphic" in2="effect2_dropShadow_206_914" result="shape"/>
</filter>
<clipPath id="clip0_206_914">
<rect x="87" y="4" width="102" height="39" rx="19.5" fill="white"/>
</clipPath>
</defs>
</svg>
